<svg width="40" height="39" viewBox="0 0 40 39" fill="none" xmlns="http://www.w3.org/2000/svg">
<rect x="0.5" width="39" height="39" rx="19.5" fill="#E55454"/>
<g clip-path="url(#clip0_85_199)">
<path d="M16 4C15.6022 4 15.2206 4.15804 14.9393 4.43934C14.658 4.72064 14.5 5.10218 14.5 5.5V6.7C14.5 10.1794 17.3206 13 20.8 13H22C22.3978 13 22.7794 12.842 23.0607 12.5607C23.342 12.2794 23.5 11.8978 23.5 11.5V10.6708C23.5 10.5036 23.4534 10.3397 23.3654 10.1974C23.2775 10.0552 23.1516 9.9403 23.002 9.8656L21.553 9.1408C21.4376 9.08313 21.3112 9.05092 21.1823 9.04637C21.0534 9.04181 20.9251 9.06501 20.8059 9.1144C20.6868 9.16379 20.5796 9.23821 20.4918 9.33262C20.4039 9.42703 20.3373 9.53922 20.2966 9.6616L20.1178 10.1974C20.0849 10.2957 20.0173 10.3787 19.9276 10.4307C19.8379 10.4827 19.7323 10.5003 19.6306 10.48C18.9865 10.3512 18.3948 10.0346 17.9303 9.57011C17.4657 9.10566 17.149 8.51412 17.02 7.87C16.9997 7.76831 17.0173 7.66272 17.0693 7.57303C17.1213 7.48334 17.2043 7.41571 17.3026 7.3828L17.968 7.1608C18.183 7.08899 18.363 6.93868 18.4721 6.7399C18.5811 6.54112 18.611 6.30852 18.556 6.0886L18.2044 4.6822C18.1558 4.48751 18.0436 4.31463 17.8856 4.19103C17.7275 4.06743 17.5327 4.00019 17.332 4H16Z" fill="white"/>
</g>
<path d="M16.1875 22H15.2148V17.457L13.8281 17.9219V17.1094L16.0664 16.293H16.1875V22ZM21.8672 19.6172C21.8672 20.2057 21.7904 20.681 21.6367 21.043C21.4831 21.4023 21.2669 21.6654 20.9883 21.832C20.7096 21.9961 20.3815 22.0781 20.0039 22.0781C19.6315 22.0781 19.3034 21.9961 19.0195 21.832C18.7383 21.6654 18.5195 21.4023 18.3633 21.043C18.207 20.681 18.1289 20.2057 18.1289 19.6172V18.6758C18.1289 18.0846 18.2057 17.6107 18.3594 17.2539C18.5156 16.8971 18.7344 16.638 19.0156 16.4766C19.2969 16.3151 19.6237 16.2344 19.9961 16.2344C20.3737 16.2344 20.7018 16.3151 20.9805 16.4766C21.2617 16.638 21.4792 16.8971 21.6328 17.2539C21.7891 17.6107 21.8672 18.0846 21.8672 18.6758V19.6172ZM20.8984 18.5312C20.8984 18.1589 20.8633 17.862 20.793 17.6406C20.7253 17.4193 20.6237 17.2604 20.4883 17.1641C20.3555 17.0651 20.1914 17.0156 19.9961 17.0156C19.806 17.0156 19.6432 17.0651 19.5078 17.1641C19.375 17.2604 19.2734 17.4193 19.2031 17.6406C19.1328 17.862 19.0977 18.1589 19.0977 18.5312V19.7539C19.0977 20.1263 19.1328 20.4258 19.2031 20.6523C19.276 20.8789 19.3802 21.0443 19.5156 21.1484C19.651 21.25 19.8138 21.3008 20.0039 21.3008C20.1992 21.3008 20.3633 21.25 20.4961 21.1484C20.6289 21.0443 20.7292 20.8789 20.7969 20.6523C20.8646 20.4258 20.8984 20.1263 20.8984 19.7539V18.5312ZM26.4219 19.6172C26.4219 20.2057 26.3451 20.681 26.1914 21.043C26.0378 21.4023 25.8216 21.6654 25.543 21.832C25.2643 21.9961 24.9362 22.0781 24.5586 22.0781C24.1862 22.0781 23.8581 21.9961 23.5742 21.832C23.293 21.6654 23.0742 21.4023 22.918 21.043C22.7617 20.681 22.6836 20.2057 22.6836 19.6172V18.6758C22.6836 18.0846 22.7604 17.6107 22.9141 17.2539C23.0703 16.8971 23.2891 16.638 23.5703 16.4766C23.8516 16.3151 24.1784 16.2344 24.5508 16.2344C24.9284 16.2344 25.2565 16.3151 25.5352 16.4766C25.8164 16.638 26.0339 16.8971 26.1875 17.2539C26.3438 17.6107 26.4219 18.0846 26.4219 18.6758V19.6172ZM25.4531 18.5312C25.4531 18.1589 25.418 17.862 25.3477 17.6406C25.2799 17.4193 25.1784 17.2604 25.043 17.1641C24.9102 17.0651 24.7461 17.0156 24.5508 17.0156C24.3607 17.0156 24.1979 17.0651 24.0625 17.1641C23.9297 17.2604 23.8281 17.4193 23.7578 17.6406C23.6875 17.862 23.6523 18.1589 23.6523 18.5312V19.7539C23.6523 20.1263 23.6875 20.4258 23.7578 20.6523C23.8307 20.8789 23.9349 21.0443 24.0703 21.1484C24.2057 21.25 24.3685 21.3008 24.5586 21.3008C24.7539 21.3008 24.918 21.25 25.0508 21.1484C25.1836 21.0443 25.2839 20.8789 25.3516 20.6523C25.4193 20.4258 25.4531 20.1263 25.4531 19.7539V18.5312ZM10.4531 31V28.0391C10.4531 27.7266 10.3776 27.4974 10.2266 27.3516C10.0781 27.2057 9.84375 27.1328 9.52344 27.1328H7.71484V26.3555H9.58594C10.1875 26.3555 10.6471 26.5026 10.9648 26.7969C11.2852 27.0911 11.4453 27.5182 11.4453 28.0781V31H10.4531ZM7.71094 31V29.4102C7.71094 29.1133 7.73958 28.8932 7.79688 28.75C7.85677 28.6042 7.91016 28.4935 7.95703 28.418H8.75C8.72656 28.5273 8.70703 28.6549 8.69141 28.8008C8.67578 28.944 8.66797 29.1172 8.66797 29.3203V31H7.71094ZM14.4102 31V27.8516C14.4102 27.625 14.3451 27.4492 14.2148 27.3242C14.0846 27.1966 13.901 27.1328 13.6641 27.1328H12.1875V26.3555H13.7227C14.2461 26.3555 14.6562 26.4922 14.9531 26.7656C15.2526 27.0391 15.4023 27.4206 15.4023 27.9102V31H14.4102ZM18.5742 31.0898C18.1862 31.0898 17.8464 31.0091 17.5547 30.8477C17.263 30.6862 17.0352 30.4596 16.8711 30.168C16.7096 29.8763 16.6289 29.5378 16.6289 29.1523V26.3555H17.6172V29.25C17.6172 29.5703 17.7044 29.8294 17.8789 30.0273C18.056 30.2227 18.2865 30.3203 18.5703 30.3203C18.8568 30.3203 19.0872 30.2227 19.2617 30.0273C19.4362 29.8294 19.5234 29.5703 19.5234 29.25V27.8125C19.5234 27.5859 19.474 27.4141 19.375 27.2969C19.276 27.1771 19.1315 27.1172 18.9414 27.1172C18.8711 27.1172 18.7943 27.1263 18.7109 27.1445C18.6276 27.1628 18.5417 27.1888 18.4531 27.2227L18.3398 26.5781C18.4753 26.4948 18.6263 26.4284 18.793 26.3789C18.9596 26.3294 19.1185 26.3047 19.2695 26.3047C19.6576 26.3047 19.9622 26.4323 20.1836 26.6875C20.4049 26.9401 20.5156 27.2878 20.5156 27.7305V29.1523C20.5156 29.5378 20.4349 29.8763 20.2734 30.168C20.112 30.4596 19.8854 30.6862 19.5938 30.8477C19.3047 31.0091 18.9648 31.0898 18.5742 31.0898ZM22.6172 26.3555V30.0195C22.849 30.1185 23.0977 30.1979 23.3633 30.2578C23.6315 30.3151 23.8841 30.3438 24.1211 30.3438C24.4831 30.3438 24.806 30.293 25.0898 30.1914C25.3763 30.0872 25.6016 29.9271 25.7656 29.7109C25.9323 29.4948 26.0156 29.2188 26.0156 28.8828V26.3555H26.9766V28.9883C26.9766 29.3477 26.9023 29.6615 26.7539 29.9297C26.6055 30.1979 26.401 30.4219 26.1406 30.6016C25.8828 30.7786 25.5846 30.9115 25.2461 31C24.9076 31.0859 24.5469 31.1289 24.1641 31.1289C23.7604 31.1289 23.3411 31.0807 22.9062 30.9844C22.4714 30.8854 22.056 30.7422 21.6602 30.5547V26.3555H22.6172ZM23.5977 29.6133C23.6706 29.5117 23.7253 29.3698 23.7617 29.1875C23.8008 29.0052 23.8203 28.8034 23.8203 28.582V26.3555H24.7812V28.3828C24.7812 28.6458 24.75 28.8854 24.6875 29.1016C24.625 29.3177 24.5326 29.4922 24.4102 29.625L23.5977 29.6133ZM28.2891 31L28.6133 28.2266C28.6393 28.0156 28.6953 27.8151 28.7812 27.625C28.8698 27.4349 28.9727 27.2878 29.0898 27.1836C29.1003 27.1732 29.1107 27.1641 29.1211 27.1562C29.1341 27.1458 29.1445 27.138 29.1523 27.1328L29.1484 27.1172C29.0417 27.1354 28.9089 27.1667 28.75 27.2109C28.5911 27.2526 28.4505 27.2956 28.3281 27.3398L28.1133 26.6133C28.3138 26.5404 28.5352 26.4779 28.7773 26.4258C29.0221 26.3711 29.2708 26.3281 29.5234 26.2969C29.7786 26.2656 30.0195 26.25 30.2461 26.25C30.9154 26.25 31.4245 26.4245 31.7734 26.7734C32.1224 27.1198 32.2982 27.6302 32.3008 28.3047V31H30.3242V30.2227H31.3125V28.1797C31.3125 27.8203 31.2344 27.5456 31.0781 27.3555C30.9245 27.1628 30.7057 27.0664 30.4219 27.0664C30.1849 27.0664 29.9935 27.1589 29.8477 27.3438C29.7018 27.526 29.612 27.7812 29.5781 28.1094L29.2656 31H28.2891Z" fill="white"/>
<defs>
<clipPath id="clip0_85_199">
<rect width="11" height="11" fill="white" transform="translate(14.5 4)"/>
</clipPath>
</defs>
</svg>
