<svg width="42" height="41" viewBox="0 0 42 41" fill="none" xmlns="http://www.w3.org/2000/svg">
<path d="M21 40C31.7696 40 40.5 31.2696 40.5 20.5C40.5 9.73045 31.7696 1 21 1C10.2304 1 1.5 9.73045 1.5 20.5C1.5 31.2696 10.2304 40 21 40Z" stroke="#B59B60" stroke-width="2" stroke-miterlimit="10"/>
<path d="M31.0531 23.7328C30.8263 20.4175 29.882 17.263 28.6285 14.1993C28.4718 13.8158 28.2738 13.4529 28.0635 13.0076C26.7152 13.8117 25.4534 14.5663 24.1916 15.3209C23.1483 14.0797 22.1092 12.8385 21.0041 11.5231C19.8702 12.8756 18.8393 14.1044 17.8249 15.3126C16.5178 14.5415 15.2395 13.7869 13.92 13.0076C12.5757 15.8899 11.6892 18.7681 11.1737 21.7659C10.5552 25.3863 10.9511 28.8212 13.0128 31.9592C13.854 33.2374 14.8313 34.2683 16.0229 34.924C16.0229 34.924 19.7176 36.9898 24.5132 35.5425C24.6575 35.5095 24.8637 35.4394 25.0699 35.3652C25.6224 35.1672 26.1544 34.8951 26.6203 34.5364C26.6574 34.5075 26.6945 34.4786 26.7275 34.4498C30.0387 31.6582 31.3417 27.9882 31.0531 23.7328ZM20.9959 13.8776C21.6556 14.7023 22.2659 15.4611 22.9174 16.2775C22.2659 16.8177 21.6556 17.3249 21.0124 17.8609C20.3856 17.3455 19.7712 16.8383 19.0991 16.2858C19.7382 15.4652 20.332 14.7147 20.9959 13.8776ZM12.4479 24.4173C12.5139 21.9679 13.5571 17.5805 14.6746 15.2302C16.5301 16.327 18.2414 17.5311 19.8248 18.9248C21.3505 20.2691 22.7484 21.7247 23.6061 23.5844C24.5009 25.5265 24.9792 27.5676 24.5957 29.7242C24.2205 31.8355 22.971 33.2127 20.9464 33.889C18.93 34.5652 17.1074 34.1817 15.6147 32.6973C13.3303 30.4293 12.3613 27.6171 12.4479 24.4173ZM26.3605 32.7096C25.7214 33.3488 24.9462 33.7694 23.8741 34.0704C25.1565 32.8251 25.9111 31.5015 26.1255 29.918C26.5544 26.7306 25.7833 23.8235 23.9813 21.1886C23.4535 20.4175 22.8143 19.7165 22.1175 18.8465C23.7999 17.6341 25.4987 16.4136 27.21 15.1848C27.3461 15.3291 27.4285 15.3786 27.4574 15.4528C28.6697 18.5826 29.6016 21.7865 29.5563 25.176C29.515 28.0996 28.447 30.6355 26.3605 32.7096Z" fill="#B59B60"/>
<g clip-path="url(#clip0_310_422)">
<path d="M17.0868 10.0057H13.6643V9.05318H14.8849C15.1034 9.05318 15.2642 8.99958 15.3714 8.89649C15.4951 8.77279 15.557 8.53362 15.557 8.179C15.557 7.79964 15.5075 7.5646 15.4127 7.47389C15.2931 7.35431 15.0498 7.29658 14.6787 7.29658C14.5509 7.29658 14.39 7.32956 14.2045 7.39142C14.0107 7.45327 13.854 7.52749 13.7303 7.61409V6.5461C14.0478 6.43889 14.423 6.38528 14.8601 6.38528C15.4828 6.38528 15.9405 6.51311 16.2456 6.77289C16.5961 7.06978 16.7693 7.4409 16.7693 7.88624C16.7693 8.12952 16.7157 8.36044 16.6085 8.57074C16.4889 8.82227 16.3322 8.98308 16.1343 9.05318H17.0868V10.0057Z" fill="#B59B60"/>
<path d="M18.7445 9.57276C18.7445 9.75419 18.6867 9.90676 18.5671 10.0263C18.4517 10.1418 18.2991 10.2037 18.1136 10.2037C17.928 10.2037 17.7796 10.1459 17.66 10.0263C17.5445 9.91089 17.4827 9.75832 17.4827 9.57276C17.4827 9.3872 17.5404 9.23876 17.66 9.11917C17.7754 9.00372 17.928 8.94186 18.1136 8.94186C18.2991 8.94186 18.4476 8.99959 18.5671 9.11917C18.6826 9.23876 18.7445 9.39132 18.7445 9.57276Z" fill="#B59B60"/>
<path d="M22.3979 7.73368C22.3979 8.11716 22.2577 8.55425 21.9773 9.04495C21.7752 9.39545 21.5443 9.71708 21.2804 10.0057H19.7836C19.8743 9.92738 19.9856 9.82017 20.1176 9.67997C20.2495 9.53977 20.4062 9.36658 20.5835 9.16041C20.8144 8.8965 21.0082 8.62848 21.1649 8.36045C21.301 8.11304 21.3752 7.92336 21.3752 7.80378C21.3752 7.60585 21.2598 7.50689 21.033 7.50689H19.2516V5.32968H20.3938V6.49251H20.8515C21.3381 6.49251 21.7175 6.59972 21.9938 6.81826C22.2618 7.03268 22.3979 7.33782 22.3979 7.73368Z" fill="#B59B60"/>
<path d="M24.0102 9.57276C24.0102 9.75419 23.9524 9.90676 23.8328 10.0263C23.7174 10.1418 23.5648 10.2037 23.3793 10.2037C23.1937 10.2037 23.0453 10.1459 22.9257 10.0263C22.8102 9.91089 22.7484 9.75832 22.7484 9.57276C22.7484 9.3872 22.8061 9.23876 22.9257 9.11917C23.0411 9.00372 23.1937 8.94186 23.3793 8.94186C23.5648 8.94186 23.7133 8.99959 23.8328 9.11917C23.9483 9.23876 24.0102 9.39132 24.0102 9.57276Z" fill="#B59B60"/>
<path d="M28.3852 10.0057H27.21V7.67182C27.21 7.58935 27.1811 7.51513 27.1234 7.44915C27.0368 7.36256 26.8801 7.3172 26.6492 7.3172C26.3152 7.3172 26.0595 7.37493 25.8905 7.49451V10.0098H24.7235V6.59147C24.806 6.55848 24.9132 6.52961 25.0451 6.50487C25.1771 6.48013 25.3379 6.45539 25.5193 6.43065C25.676 6.41416 25.8204 6.39766 25.9564 6.38942C26.0925 6.38117 26.2203 6.37704 26.3399 6.37704C27.7048 6.37704 28.3852 6.99145 28.3852 8.22437V10.0057Z" fill="#B59B60"/>
</g>
<defs>
<clipPath id="clip0_310_422">
<rect width="14.7209" height="4.86985" fill="white" transform="translate(13.6643 5.32968)"/>
</clipPath>
</defs>
</svg>
