<svg width="120" height="121" viewBox="0 0 120 121" fill="none" xmlns="http://www.w3.org/2000/svg">
<rect width="120" height="120.222" rx="60" fill="#E554C2"/>
<path d="M87.7693 47.7693C87.7693 63.135 60 100.222 60 100.222C60 100.222 32.2307 63.135 32.2307 47.7693C32.2307 40.4044 35.1564 33.3412 40.3641 28.1334C45.5719 22.9257 52.6351 20 60 20C67.3649 20 74.4281 22.9257 79.6358 28.1334C84.8436 33.3412 87.7693 40.4044 87.7693 47.7693Z" stroke="white" stroke-width="6" stroke-linecap="round" stroke-linejoin="round"/>
<path d="M60.0001 57.0257C65.1123 57.0257 69.2565 52.8815 69.2565 47.7693C69.2565 42.6571 65.1123 38.5128 60.0001 38.5128C54.8879 38.5128 50.7437 42.6571 50.7437 47.7693C50.7437 52.8815 54.8879 57.0257 60.0001 57.0257Z" stroke="white" stroke-width="6" stroke-linecap="round" stroke-linejoin="round"/>
</svg>
