<svg width="55" height="55" viewBox="0 0 55 55" fill="none" xmlns="http://www.w3.org/2000/svg">
<rect x="1" y="1" width="53" height="53" rx="26.5" fill="white"/>
<path d="M25.2129 34L16.9902 22.3887H19.7637L27.9766 34H25.2129ZM17.4395 34V29.9863C17.4395 28.847 17.6413 27.9421 18.0449 27.2715C18.4486 26.6009 19.0996 26.1061 19.998 25.7871L20.9062 27.0371C20.1901 27.4147 19.832 28.0625 19.832 28.9805V34H17.4395ZM28.0645 22.3887L24.1484 29.5664L22.5371 27.6328L25.2812 22.3887H28.0645ZM29.6074 24.332V19H32.0879V22.3887H37.9082V24.332H29.6074ZM38.7969 23.9609L34.7539 34H32.1172L36.9121 22.3887H38.7969V23.9609Z" fill="#E554C2"/>
<rect x="1" y="1" width="53" height="53" rx="26.5" stroke="#E554C2" stroke-width="2"/>
</svg>
