<svg width="222" height="36" viewBox="0 0 222 36" fill="none" xmlns="http://www.w3.org/2000/svg">
<rect width="222" height="36" rx="5" fill="#E554C2"/>
<path d="M27.5 23.4L35.5 18.2L27.5 13" stroke="white" stroke-width="2" stroke-linecap="round" stroke-linejoin="round"/>
<circle cx="13" cy="13" r="12" transform="matrix(-1 0 0 1 43.5 5)" stroke="white" stroke-width="2"/>
<path d="M59.4844 13.7969C60.7031 13.7969 61.612 14.0885 62.2109 14.6719C62.8151 15.25 63.1172 16.1328 63.1172 17.3203V23H61.6719L61.6641 17.2344C61.6641 16.4375 61.4922 15.8594 61.1484 15.5C60.8099 15.1406 60.2604 14.9609 59.5 14.9609H58.1953C58.0234 15.2422 57.8854 15.6042 57.7812 16.0469C57.6823 16.4844 57.6328 16.9349 57.6328 17.3984V20.5C57.6328 21.349 57.4297 21.9922 57.0234 22.4297C56.6224 22.862 56.0417 23.0781 55.2812 23.0781C55.125 23.0781 54.974 23.0703 54.8281 23.0547C54.6875 23.0443 54.5391 23.0286 54.3828 23.0078V21.8438C54.4766 21.8542 54.5677 21.862 54.6562 21.8672C54.75 21.8724 54.8385 21.875 54.9219 21.875C55.3802 21.875 55.7109 21.7578 55.9141 21.5234C56.1172 21.2891 56.2188 20.9193 56.2188 20.4141V17.5078C56.2188 17.0443 56.2786 16.5755 56.3984 16.1016C56.5234 15.6276 56.6979 15.2474 56.9219 14.9609H55.1953V13.7969H59.4844ZM65.6484 23L66.3516 17.1484C66.4089 16.7161 66.5312 16.3125 66.7188 15.9375C66.9062 15.5625 67.1276 15.2734 67.3828 15.0703C67.4089 15.0495 67.4349 15.0312 67.4609 15.0156C67.4922 14.9948 67.5182 14.9766 67.5391 14.9609L67.5234 14.9375C67.2943 14.974 67.0026 15.0391 66.6484 15.1328C66.2995 15.2214 65.9766 15.3177 65.6797 15.4219L65.3438 14.3281C65.7448 14.1875 66.1797 14.0651 66.6484 13.9609C67.1224 13.8568 67.6016 13.776 68.0859 13.7188C68.5703 13.6562 69.0234 13.625 69.4453 13.625C70.6849 13.625 71.6302 13.9557 72.2812 14.6172C72.9375 15.2734 73.2682 16.2396 73.2734 17.5156V23H69.4844V21.8359H71.8281V17.3516C71.8281 16.5286 71.6406 15.9062 71.2656 15.4844C70.8958 15.0573 70.362 14.8438 69.6641 14.8438C69.1589 14.8438 68.737 15.0391 68.3984 15.4297C68.0599 15.8151 67.8516 16.3411 67.7734 17.0078L67.0781 23H65.6484ZM74.9375 13.7969H82.3047V14.9609H80.7656V23H79.3125V14.9609H74.9375V13.7969ZM84.6641 23V14.9609H83.5938V13.7969H86.1172V23H84.6641ZM92.0391 23V21.8594C92.8099 21.8333 93.4297 21.5911 93.8984 21.1328C94.3724 20.6745 94.6094 20.0417 94.6094 19.2344V14.9609H88.9297V13.7969H96.0625V19.2031C96.0625 19.9792 95.8958 20.6484 95.5625 21.2109C95.2292 21.7734 94.7604 22.2083 94.1562 22.5156C93.5521 22.8177 92.8464 22.9792 92.0391 23ZM89.1094 26.25V19.5469C89.1094 19.0208 89.1536 18.6172 89.2422 18.3359C89.3307 18.0547 89.4219 17.8151 89.5156 17.6172H90.7031C90.6354 17.8516 90.5859 18.112 90.5547 18.3984C90.5286 18.6849 90.5156 19.0391 90.5156 19.4609V26.25H89.1094ZM104.25 23V17.2266C104.25 16.4297 104.07 15.8542 103.711 15.5C103.352 15.1406 102.773 14.9609 101.977 14.9609H98.6406V13.7969H102.047C103.25 13.7969 104.159 14.0885 104.773 14.6719C105.393 15.25 105.703 16.1146 105.703 17.2656V23H104.25ZM98.6562 23V19.8594C98.6562 19.3229 98.7005 18.9141 98.7891 18.6328C98.8776 18.3516 98.9688 18.112 99.0625 17.9141H100.25C100.188 18.1484 100.141 18.4115 100.109 18.7031C100.078 18.9896 100.062 19.3438 100.062 19.7656V23H98.6562ZM117.625 23V17.2266C117.625 16.4297 117.445 15.8542 117.086 15.5C116.727 15.1406 116.148 14.9609 115.352 14.9609H112.016V13.7969H115.422C116.625 13.7969 117.534 14.0885 118.148 14.6719C118.768 15.25 119.078 16.1146 119.078 17.2656V23H117.625ZM112.031 23V19.8594C112.031 19.3229 112.076 18.9141 112.164 18.6328C112.253 18.3516 112.344 18.112 112.438 17.9141H113.625C113.562 18.1484 113.516 18.4115 113.484 18.7031C113.453 18.9896 113.438 19.3438 113.438 19.7656V23H112.031ZM120.914 14.9609V11H122.359V13.7969H127.359V14.9609H120.914ZM127.906 14.7109L124.531 23H122.977L126.797 13.7969H127.906V14.7109ZM136.344 23L129.672 13.7969H131.297L137.961 23H136.344ZM130 23V19.6641C130 18.8047 130.159 18.112 130.477 17.5859C130.794 17.0599 131.289 16.6745 131.961 16.4297L132.531 17.1797C131.781 17.5182 131.406 18.1719 131.406 19.1406V23H130ZM138 13.7969L134.828 19.3516L133.867 18.2344L136.367 13.7969H138ZM141.57 13.7969V21.3672C142.065 21.5755 142.589 21.7422 143.141 21.8672C143.693 21.987 144.221 22.0469 144.727 22.0469C145.461 22.0469 146.122 21.9427 146.711 21.7344C147.299 21.5208 147.766 21.1979 148.109 20.7656C148.458 20.3281 148.633 19.776 148.633 19.1094V13.7969H150.039V19.2422C150.039 19.9141 149.901 20.5 149.625 21C149.349 21.4948 148.969 21.9089 148.484 22.2422C148 22.5703 147.443 22.8151 146.812 22.9766C146.182 23.138 145.51 23.2188 144.797 23.2188C144.047 23.2188 143.271 23.1302 142.469 22.9531C141.667 22.7708 140.898 22.5052 140.164 22.1562V13.7969H141.57ZM143.781 20.4609C143.979 20.2526 144.125 19.9714 144.219 19.6172C144.318 19.2578 144.367 18.8438 144.367 18.375V13.7969H145.781V18.1172C145.781 18.6432 145.716 19.1042 145.586 19.5C145.461 19.8958 145.26 20.2318 144.984 20.5078L143.781 20.4609ZM152.102 14.9609V11H153.547V13.7969H158.547V14.9609H152.102ZM159.094 14.7109L155.719 23H154.164L157.984 13.7969H159.094V14.7109ZM170.406 23V17.2266C170.406 16.4297 170.227 15.8542 169.867 15.5C169.508 15.1406 168.93 14.9609 168.133 14.9609H164.797V13.7969H168.203C169.406 13.7969 170.315 14.0885 170.93 14.6719C171.549 15.25 171.859 16.1146 171.859 17.2656V23H170.406ZM164.812 23V19.8594C164.812 19.3229 164.857 18.9141 164.945 18.6328C165.034 18.3516 165.125 18.112 165.219 17.9141H166.406C166.344 18.1484 166.297 18.4115 166.266 18.7031C166.234 18.9896 166.219 19.3438 166.219 19.7656V23H164.812ZM178.258 23V16.5781C178.258 16.0781 178.109 15.6849 177.812 15.3984C177.521 15.1068 177.12 14.9609 176.609 14.9609H173.516V13.7969H176.656C177.609 13.7969 178.354 14.0521 178.891 14.5625C179.432 15.0677 179.703 15.776 179.703 16.6875V23H178.258ZM183.398 23L182.148 15.0234L181.5 14.9141V13.7969H185.969L185.961 14.9609H183.586L184.891 23H183.398ZM187.977 23L187.984 13.7969H191.445C192.664 13.7969 193.573 14.0885 194.172 14.6719C194.771 15.25 195.073 16.1328 195.078 17.3203V23H193.633V17.2344C193.633 16.4375 193.461 15.8594 193.117 15.5C192.773 15.1406 192.221 14.9609 191.461 14.9609H189.43L189.422 23H187.977ZM196.93 14.9609V11H198.375V13.7969H203.375V14.9609H196.93ZM203.922 14.7109L200.547 23H198.992L202.812 13.7969H203.922V14.7109Z" fill="white"/>
</svg>
