<svg width="40" height="40" viewBox="0 0 40 40" fill="none" xmlns="http://www.w3.org/2000/svg">
<rect x="1.5" y="1.5" width="37" height="37" rx="18.5" fill="#E554C2"/>
<path d="M21.6613 11.42C21.7641 11.4781 21.8495 11.5624 21.909 11.6643C21.9685 11.7662 21.9999 11.8821 22 12V28C22 28.118 21.9688 28.2339 21.9094 28.3358C21.85 28.4377 21.7646 28.522 21.662 28.5802C21.5594 28.6384 21.4432 28.6682 21.3252 28.6668C21.2073 28.6654 21.0918 28.6327 20.9907 28.5721L14.4827 24.6667H12C11.4696 24.6667 10.9609 24.456 10.5858 24.0809C10.2107 23.7059 10 23.1971 10 22.6667V17.3294C10.0004 16.7992 10.2112 16.2908 10.5863 15.916C10.9613 15.5412 11.4698 15.3307 12 15.3307H14.4827L20.9893 11.428C21.0906 11.3673 21.2062 11.3346 21.3243 11.3332C21.4423 11.3318 21.5586 11.3618 21.6613 11.42ZM28.472 15.5254L28 15.0547L27.0573 15.9974L27.5253 16.4667L27.5293 16.4694L27.556 16.4987C27.7566 16.7441 27.9293 17.0111 28.0707 17.2947C28.364 17.8801 28.6667 18.7774 28.6667 19.9947C28.6667 21.212 28.3627 22.1094 28.0707 22.6947C27.9583 22.9221 27.8257 23.139 27.6747 23.3427C27.6284 23.4039 27.5794 23.4631 27.528 23.5201L27.5253 23.524L27.0573 23.9907L28 24.9347L28.472 24.464L28.4733 24.4614L28.476 24.4587L28.4827 24.452L28.5013 24.4334L28.5587 24.3694C28.6053 24.3161 28.668 24.2401 28.7413 24.1427C28.888 23.9481 29.076 23.6627 29.2627 23.2907C29.636 22.5441 30 21.4427 30 19.9947C30 18.5467 29.6373 17.4467 29.2627 16.6987C29.1151 16.3998 28.9411 16.1146 28.7427 15.8467C28.667 15.7464 28.5864 15.6498 28.5013 15.5574L28.4827 15.5374L28.476 15.5307L28.4733 15.528C28.4733 15.5267 28.4707 15.5254 28 15.9974L28.472 15.5254Z" fill="white"/>
<rect x="1.5" y="1.5" width="37" height="37" rx="18.5" stroke="white" stroke-width="3"/>
</svg>
