<svg width="69" height="69" viewBox="0 0 69 69" fill="none" xmlns="http://www.w3.org/2000/svg">
<rect x="1.5" y="1.5" width="66" height="66" rx="33" fill="white"/>
<path d="M19.8516 19.8516C20.1212 19.5817 20.4414 19.3675 20.7938 19.2213C21.1462 19.0752 21.524 19 21.9056 19C22.2871 19 22.6649 19.0752 23.0173 19.2213C23.3697 19.3675 23.6899 19.5817 23.9595 19.8516L34.5004 30.3887L45.0414 19.8516C45.3111 19.5819 45.6313 19.3679 45.9837 19.222C46.3361 19.076 46.7138 19.0009 47.0953 19.0009C47.4767 19.0009 47.8545 19.076 48.2069 19.222C48.5593 19.3679 48.8795 19.5819 49.1492 19.8516C49.419 20.1214 49.6329 20.4416 49.7789 20.794C49.9249 21.1464 50 21.5241 50 21.9056C50 22.287 49.9249 22.6647 49.7789 23.0171C49.6329 23.3696 49.419 23.6898 49.1492 23.9595L38.6122 34.5004L49.1492 45.0414C49.694 45.5861 50 46.3249 50 47.0953C50 47.8657 49.694 48.6045 49.1492 49.1492C48.6045 49.694 47.8657 50 47.0953 50C46.3249 50 45.5861 49.694 45.0414 49.1492L34.5004 38.6122L23.9595 49.1492C23.4148 49.694 22.6759 50 21.9056 50C21.1352 50 20.3964 49.694 19.8516 49.1492C19.3069 48.6045 19.0009 47.8657 19.0009 47.0953C19.0009 46.3249 19.3069 45.5861 19.8516 45.0414L30.3887 34.5004L19.8516 23.9595C19.5817 23.6899 19.3675 23.3697 19.2213 23.0173C19.0752 22.6649 19 22.2871 19 21.9056C19 21.524 19.0752 21.1462 19.2213 20.7938C19.3675 20.4414 19.5817 20.1212 19.8516 19.8516Z" fill="#E554C2"/>
<rect x="1.5" y="1.5" width="66" height="66" rx="33" stroke="#E554C2" stroke-width="3"/>
</svg>
