<svg width="55" height="55" viewBox="0 0 55 55" fill="none" xmlns="http://www.w3.org/2000/svg">
<rect x="1" y="1" width="53" height="53" rx="26.5" fill="white"/>
<path d="M21.4609 38.0625V24.332H20.2598V22.3887H23.9023V38.0625H21.4609ZM29.625 34.1758C29.1172 34.1758 28.5833 34.1335 28.0234 34.0488C27.4701 33.9642 26.8906 33.847 26.2852 33.6973L26.666 31.8711C27.7012 32.125 28.5931 32.2487 29.3418 32.2422C30.3574 32.2292 31.1094 31.9883 31.5977 31.5195C32.0924 31.0443 32.3398 30.3639 32.3398 29.4785V24.332H26.7148V22.3887H34.8203V29.0098C34.8203 30.2077 34.6055 31.1875 34.1758 31.9492C33.7461 32.7109 33.1439 33.2741 32.3691 33.6387C31.5944 33.9967 30.6797 34.1758 29.625 34.1758Z" fill="#E554C2"/>
<rect x="1" y="1" width="53" height="53" rx="26.5" stroke="#E554C2" stroke-width="2"/>
</svg>
