<svg width="120" height="120" viewBox="0 0 120 120" fill="none" xmlns="http://www.w3.org/2000/svg">
<path d="M60 7.5C73.9239 7.5 87.2774 13.0312 97.1231 22.8769C106.969 32.7226 112.5 46.0761 112.5 60C112.5 73.9239 106.969 87.2774 97.1231 97.1231C87.2774 106.969 73.9239 112.5 60 112.5C46.0761 112.5 32.7226 106.969 22.8769 97.1231C13.0312 87.2774 7.5 73.9239 7.5 60C7.5 46.0761 13.0312 32.7226 22.8769 22.8769C32.7226 13.0312 46.0761 7.5 60 7.5ZM60 30C59.0478 29.9992 58.1059 30.197 57.2345 30.5807C56.363 30.9645 55.5812 31.5258 54.9389 32.2288C54.2966 32.9317 53.808 33.7609 53.5043 34.6634C53.2006 35.5659 53.0884 36.5217 53.175 37.47L55.9125 67.515C56.0186 68.5251 56.495 69.4602 57.2498 70.1398C58.0046 70.8194 58.9843 71.1955 60 71.1955C61.0157 71.1955 61.9954 70.8194 62.7502 70.1398C63.505 69.4602 63.9814 68.5251 64.0875 67.515L66.8175 37.47C66.904 36.5224 66.7921 35.5671 66.4888 34.6652C66.1855 33.7632 65.6976 32.9344 65.0561 32.2315C64.4147 31.5287 63.6337 30.9672 62.7632 30.583C61.8926 30.1988 60.9516 30.0002 60 30ZM60 90C61.5913 90 63.1174 89.3679 64.2426 88.2426C65.3679 87.1174 66 85.5913 66 84C66 82.4087 65.3679 80.8826 64.2426 79.7574C63.1174 78.6321 61.5913 78 60 78C58.4087 78 56.8826 78.6321 55.7574 79.7574C54.6321 80.8826 54 82.4087 54 84C54 85.5913 54.6321 87.1174 55.7574 88.2426C56.8826 89.3679 58.4087 90 60 90Z" fill="#E554C2"/>
</svg>
